<svg width="215" height="21" viewBox="0 0 215 21" fill="none" xmlns="http://www.w3.org/2000/svg">
<path d="M175.73 9.4502H178.114V13.7803H182.476V9.4502H184.861V20.6866H182.476V16.0317H178.114V20.6866H175.73V9.4502Z" fill="white"/>
<path d="M196.092 9.4502L192.47 20.6866H189.475L185.883 9.4502H188.514L191.031 17.8923L193.605 9.4502H196.092Z" fill="white"/>
<path d="M202.606 18.4197H198.404L197.633 20.6847H195.146L199.204 9.44824H201.91L205.938 20.6847H203.379L202.608 18.4197H202.606ZM201.895 16.341L200.499 12.2426L199.102 16.341H201.895Z" fill="white"/>
<path d="M206.33 15.2232C206.33 11.6383 208.599 9.23242 211.944 9.23242C212.947 9.23242 213.835 9.43461 214.605 9.8231V12.4312C213.994 11.8268 213.136 11.4838 212.104 11.4838C210.054 11.4838 208.787 12.9264 208.787 15.1164C208.787 17.3065 210.066 18.656 212.089 18.656C213.107 18.656 213.95 18.3447 214.605 17.7722V20.194C213.777 20.6438 212.787 20.8914 211.697 20.8914C208.482 20.8914 206.33 18.7196 206.33 15.2278V15.2232Z" fill="white"/>
<path d="M52.7551 0C56.6874 0 59.0974 2.3945 59.0974 6.5315C59.0974 7.91958 58.6546 9.22134 57.935 10.255C58.6546 11.3182 59.0974 12.6791 59.0974 14.1262C59.0974 18.2632 56.6874 20.6872 52.7551 20.6872H38.9079V0H52.7551ZM45.3886 5.40694V7.65378H51.814C52.4229 7.65378 52.8658 7.21077 52.8658 6.50196C52.8658 5.79315 52.4229 5.40921 51.814 5.40921H45.3886V5.40694ZM45.3886 13.0039V15.2803H51.814C52.4229 15.2803 52.8658 14.8373 52.8658 14.1285C52.8658 13.4197 52.4229 13.0062 51.814 13.0062H45.3886V13.0039Z" fill="white"/>
<path d="M61.3137 11.3773V0H67.7945V11.2592C67.7945 13.8604 69.0676 15.219 71.0348 15.219C73.0021 15.219 74.1922 13.8604 74.1922 11.2592V0H80.6729V11.3773C80.6729 18.3518 76.0764 20.9826 70.8965 20.9826C65.7165 20.9826 61.3137 18.3518 61.3137 11.3773Z" fill="white"/>
<path d="M89.6446 0L97.3432 10.7571H97.5369V0H104.018V20.6872H97.5369L89.8661 10.2846H89.6446V20.6872H83.1639V0H89.6446Z" fill="white"/>
<path d="M112.992 0V6.73823H113.185L117.893 0H125.176L118.252 9.1918L125.619 20.6872H117.976L114.237 14.6873H114.099L112.992 16.1345V20.685H106.511V0H112.992Z" fill="white"/>
<path d="M144.397 0V5.43648H133.762V7.59471H144.397V13.063H133.762V15.2508H144.397V20.6872H127.282V0H144.397Z" fill="white"/>
<path d="M160.599 0C164.531 0 166.913 2.42404 166.913 6.56103C166.913 9.30994 165.195 11.525 162.898 12.5019L167.55 20.6872H160.516L156.417 13.0335H153.371V20.6872H146.89V0H160.599ZM153.371 5.43648V7.62424H159.381C159.99 7.62424 160.433 7.18124 160.433 6.50196C160.433 5.76362 159.99 5.43875 159.381 5.43875H153.371V5.43648Z" fill="white"/>
<path d="M6.2934 0H0L8.47352 13.063V20.6872H14.9543V13.3515L6.91081 0.951895L6.2934 0Z" fill="#1F91D0"/>
<path d="M21.9374 0H17.8859L19.9127 3.62129L21.9374 0Z" fill="#1F91D0"/>
<path d="M20.0234 6.67917H19.7999L19.4742 6.09531L16.0613 0H8.19672L12.1524 6.09531L15.8122 11.7385L16.6724 13.063V20.6872H23.151V13.063L31.6266 0H23.762L20.0234 6.67917Z" fill="white"/>
</svg>
